<svg xmlns="http://www.w3.org/2000/svg" viewBox="0 0 1024 1024">
  <rect width="1024" height="1024" rx="224" fill="#5AC8FA"/>
  <g fill="#FFFFFF" transform="translate(0 -8)">
    <path fill-rule="evenodd" d="M360 262Q512 252 664 262C714 268 734 290 752 322L792 414C845 450 878 490 880 575L880 668C880 695 870 710 856 716L856 752C856 775 842 788 820 788L772 788C750 788 738 775 738 752L738 732C738 724 732 718 724 718L300 718C292 718 286 724 286 732L286 752C286 775 274 788 252 788L204 788C182 788 168 775 168 752L168 716C154 710 144 695 144 668L144 575C146 490 179 450 232 414L272 322C290 290 310 268 360 262Z M376 300Q512 292 648 300C676 302 694 314 706 338L750 440C758 460 748 468 728 468L296 468C276 468 266 460 274 440L318 338C330 314 348 302 376 300Z"/>
    <rect x="136" y="410" width="100" height="58" rx="24"/>
    <rect x="788" y="410" width="100" height="58" rx="24"/>
    <rect x="394" y="346" width="32" height="72" rx="16"/>
    <rect x="462" y="318" width="32" height="128" rx="16"/>
    <rect x="530" y="318" width="32" height="128" rx="16"/>
    <rect x="598" y="346" width="32" height="72" rx="16"/>
  </g>
</svg>
